<svg width="120" height="120" viewBox="0 0 120 120" fill="none" xmlns="http://www.w3.org/2000/svg">
  <!-- Outer hexagon -->
  <path d="M60 10 L105 32 L105 88 L60 110 L15 88 L15 32 Z" stroke="url(#logoGrad)" stroke-width="4" fill="none"/>

  <!-- Inner hexagon -->
  <path d="M60 28 L88 44 L88 76 L60 92 L32 76 L32 44 Z" stroke="url(#logoGrad)" stroke-width="3" fill="rgba(0,212,170,0.06)"/>

  <!-- Center node -->
  <circle cx="60" cy="60" r="10" fill="url(#logoGrad)"/>

  <!-- Connection lines from center to inner hex vertices -->
  <line x1="60" y1="50" x2="60" y2="28" stroke="#00d4aa" stroke-width="2" opacity="0.5"/>
  <line x1="68.66" y1="55" x2="88" y2="44" stroke="#00d4aa" stroke-width="2" opacity="0.5"/>
  <line x1="68.66" y1="65" x2="88" y2="76" stroke="#00d4aa" stroke-width="2" opacity="0.5"/>
  <line x1="60" y1="70" x2="60" y2="92" stroke="#00d4aa" stroke-width="2" opacity="0.5"/>
  <line x1="51.34" y1="65" x2="32" y2="76" stroke="#00d4aa" stroke-width="2" opacity="0.5"/>
  <line x1="51.34" y1="55" x2="32" y2="44" stroke="#00d4aa" stroke-width="2" opacity="0.5"/>

  <!-- Vertex dots on inner hexagon -->
  <circle cx="60" cy="28" r="3" fill="#00d4aa" opacity="0.6"/>
  <circle cx="88" cy="44" r="3" fill="#00d4aa" opacity="0.6"/>
  <circle cx="88" cy="76" r="3" fill="#00d4aa" opacity="0.6"/>
  <circle cx="60" cy="92" r="3" fill="#00d4aa" opacity="0.6"/>
  <circle cx="32" cy="76" r="3" fill="#00d4aa" opacity="0.6"/>
  <circle cx="32" cy="44" r="3" fill="#00d4aa" opacity="0.6"/>

  <defs>
    <linearGradient id="logoGrad" x1="15" y1="10" x2="105" y2="110">
      <stop offset="0%" stop-color="#00d4aa"/>
      <stop offset="100%" stop-color="#3b82f6"/>
    </linearGradient>
  </defs>
</svg>
